<mxfile host="app.diagrams.net" agent="Mozilla/5.0 (Windows NT 10.0; Win64; x64) AppleWebKit/537.36 (KHTML, like Gecko) Chrome/140.0.0.0 Safari/537.36" version="28.2.8">
  <diagram name="Page-1" id="2KPIYDntzleWEmQrs96q">
    <mxGraphModel dx="1390" dy="290" grid="1" gridSize="10" guides="1" tooltips="1" connect="1" arrows="1" fold="1" page="1" pageScale="1" pageWidth="827" pageHeight="1169" math="0" shadow="0">
      <root>
        <mxCell id="0" />
        <mxCell id="1" parent="0" />
        <mxCell id="EYo5hlnrkkz8JyaRNVUc-1" value="Hackathon" style="whiteSpace=wrap;html=1;align=center;" vertex="1" parent="1">
          <mxGeometry x="360" y="400" width="100" height="40" as="geometry" />
        </mxCell>
        <mxCell id="EYo5hlnrkkz8JyaRNVUc-2" value="&lt;u&gt;Name&lt;/u&gt;" style="ellipse;whiteSpace=wrap;html=1;align=center;" vertex="1" parent="1">
          <mxGeometry x="360" y="310" width="100" height="40" as="geometry" />
        </mxCell>
        <mxCell id="EYo5hlnrkkz8JyaRNVUc-3" style="edgeStyle=orthogonalEdgeStyle;rounded=0;orthogonalLoop=1;jettySize=auto;html=1;entryX=0.5;entryY=0;entryDx=0;entryDy=0;endArrow=none;endFill=0;" edge="1" parent="1" source="EYo5hlnrkkz8JyaRNVUc-2" target="EYo5hlnrkkz8JyaRNVUc-1">
          <mxGeometry relative="1" as="geometry" />
        </mxCell>
        <mxCell id="EYo5hlnrkkz8JyaRNVUc-5" style="edgeStyle=orthogonalEdgeStyle;rounded=0;orthogonalLoop=1;jettySize=auto;html=1;entryX=1;entryY=0.25;entryDx=0;entryDy=0;endArrow=none;endFill=0;" edge="1" parent="1" source="EYo5hlnrkkz8JyaRNVUc-4" target="EYo5hlnrkkz8JyaRNVUc-1">
          <mxGeometry relative="1" as="geometry" />
        </mxCell>
        <mxCell id="EYo5hlnrkkz8JyaRNVUc-4" value="Duration" style="ellipse;whiteSpace=wrap;html=1;align=center;" vertex="1" parent="1">
          <mxGeometry x="500" y="310" width="100" height="40" as="geometry" />
        </mxCell>
        <mxCell id="EYo5hlnrkkz8JyaRNVUc-7" style="edgeStyle=orthogonalEdgeStyle;rounded=0;orthogonalLoop=1;jettySize=auto;html=1;entryX=1;entryY=0.75;entryDx=0;entryDy=0;endArrow=none;endFill=0;" edge="1" parent="1" source="EYo5hlnrkkz8JyaRNVUc-6" target="EYo5hlnrkkz8JyaRNVUc-1">
          <mxGeometry relative="1" as="geometry" />
        </mxCell>
        <mxCell id="EYo5hlnrkkz8JyaRNVUc-6" value="&lt;u&gt;Location*&lt;/u&gt;" style="ellipse;whiteSpace=wrap;html=1;align=center;" vertex="1" parent="1">
          <mxGeometry x="500" y="460" width="100" height="40" as="geometry" />
        </mxCell>
        <mxCell id="EYo5hlnrkkz8JyaRNVUc-8" value="Location" style="whiteSpace=wrap;html=1;align=center;" vertex="1" parent="1">
          <mxGeometry x="360" y="550" width="100" height="40" as="geometry" />
        </mxCell>
        <mxCell id="EYo5hlnrkkz8JyaRNVUc-10" style="edgeStyle=orthogonalEdgeStyle;rounded=0;orthogonalLoop=1;jettySize=auto;html=1;exitX=1;exitY=0.5;exitDx=0;exitDy=0;entryX=0;entryY=0.5;entryDx=0;entryDy=0;endArrow=none;endFill=0;" edge="1" parent="1" source="EYo5hlnrkkz8JyaRNVUc-9" target="EYo5hlnrkkz8JyaRNVUc-8">
          <mxGeometry relative="1" as="geometry" />
        </mxCell>
        <mxCell id="EYo5hlnrkkz8JyaRNVUc-9" value="Name" style="ellipse;whiteSpace=wrap;html=1;align=center;" vertex="1" parent="1">
          <mxGeometry x="200" y="550" width="100" height="40" as="geometry" />
        </mxCell>
        <mxCell id="EYo5hlnrkkz8JyaRNVUc-12" style="edgeStyle=orthogonalEdgeStyle;shape=connector;rounded=0;orthogonalLoop=1;jettySize=auto;html=1;exitX=1;exitY=0;exitDx=0;exitDy=0;entryX=0.25;entryY=1;entryDx=0;entryDy=0;strokeColor=default;align=center;verticalAlign=middle;fontFamily=Helvetica;fontSize=11;fontColor=default;labelBackgroundColor=default;endArrow=none;endFill=0;" edge="1" parent="1" source="EYo5hlnrkkz8JyaRNVUc-11" target="EYo5hlnrkkz8JyaRNVUc-8">
          <mxGeometry relative="1" as="geometry" />
        </mxCell>
        <mxCell id="EYo5hlnrkkz8JyaRNVUc-11" value="Address" style="ellipse;whiteSpace=wrap;html=1;align=center;" vertex="1" parent="1">
          <mxGeometry x="230" y="620" width="100" height="40" as="geometry" />
        </mxCell>
        <mxCell id="EYo5hlnrkkz8JyaRNVUc-14" style="edgeStyle=orthogonalEdgeStyle;shape=connector;rounded=0;orthogonalLoop=1;jettySize=auto;html=1;entryX=0.5;entryY=1;entryDx=0;entryDy=0;strokeColor=default;align=center;verticalAlign=middle;fontFamily=Helvetica;fontSize=11;fontColor=default;labelBackgroundColor=default;endArrow=none;endFill=0;" edge="1" parent="1" source="EYo5hlnrkkz8JyaRNVUc-13" target="EYo5hlnrkkz8JyaRNVUc-8">
          <mxGeometry relative="1" as="geometry" />
        </mxCell>
        <mxCell id="EYo5hlnrkkz8JyaRNVUc-13" value="Capacity" style="ellipse;whiteSpace=wrap;html=1;align=center;" vertex="1" parent="1">
          <mxGeometry x="430" y="690" width="100" height="40" as="geometry" />
        </mxCell>
        <mxCell id="EYo5hlnrkkz8JyaRNVUc-16" style="edgeStyle=orthogonalEdgeStyle;shape=connector;rounded=0;orthogonalLoop=1;jettySize=auto;html=1;entryX=0.75;entryY=1;entryDx=0;entryDy=0;strokeColor=default;align=center;verticalAlign=middle;fontFamily=Helvetica;fontSize=11;fontColor=default;labelBackgroundColor=default;endArrow=none;endFill=0;" edge="1" parent="1" source="EYo5hlnrkkz8JyaRNVUc-15" target="EYo5hlnrkkz8JyaRNVUc-8">
          <mxGeometry relative="1" as="geometry" />
        </mxCell>
        <mxCell id="EYo5hlnrkkz8JyaRNVUc-15" value="Type" style="ellipse;whiteSpace=wrap;html=1;align=center;" vertex="1" parent="1">
          <mxGeometry x="490" y="610" width="100" height="40" as="geometry" />
        </mxCell>
        <mxCell id="EYo5hlnrkkz8JyaRNVUc-18" value="" style="ellipse;whiteSpace=wrap;html=1;aspect=fixed;fontFamily=Helvetica;fontSize=11;fontColor=default;labelBackgroundColor=default;" vertex="1" parent="1">
          <mxGeometry x="370" y="680" width="30" height="30" as="geometry" />
        </mxCell>
        <mxCell id="EYo5hlnrkkz8JyaRNVUc-19" style="edgeStyle=orthogonalEdgeStyle;shape=connector;rounded=0;orthogonalLoop=1;jettySize=auto;html=1;strokeColor=default;align=center;verticalAlign=middle;fontFamily=Helvetica;fontSize=11;fontColor=default;labelBackgroundColor=default;endArrow=none;endFill=0;entryX=0.34;entryY=0.975;entryDx=0;entryDy=0;entryPerimeter=0;" edge="1" parent="1" source="EYo5hlnrkkz8JyaRNVUc-18" target="EYo5hlnrkkz8JyaRNVUc-8">
          <mxGeometry relative="1" as="geometry" />
        </mxCell>
        <mxCell id="EYo5hlnrkkz8JyaRNVUc-21" style="edgeStyle=orthogonalEdgeStyle;shape=connector;rounded=0;orthogonalLoop=1;jettySize=auto;html=1;entryX=0;entryY=1;entryDx=0;entryDy=0;strokeColor=default;align=center;verticalAlign=middle;fontFamily=Helvetica;fontSize=11;fontColor=default;labelBackgroundColor=default;endArrow=none;endFill=0;" edge="1" parent="1" source="EYo5hlnrkkz8JyaRNVUc-20" target="EYo5hlnrkkz8JyaRNVUc-18">
          <mxGeometry relative="1" as="geometry" />
        </mxCell>
        <mxCell id="EYo5hlnrkkz8JyaRNVUc-20" value="&lt;strong data-end=&quot;654&quot; data-start=&quot;632&quot;&gt;UniversityLocation&lt;/strong&gt;" style="whiteSpace=wrap;html=1;align=center;fontFamily=Helvetica;fontSize=11;fontColor=default;labelBackgroundColor=default;" vertex="1" parent="1">
          <mxGeometry x="270" y="760" width="100" height="40" as="geometry" />
        </mxCell>
        <mxCell id="EYo5hlnrkkz8JyaRNVUc-23" style="edgeStyle=orthogonalEdgeStyle;shape=connector;rounded=0;orthogonalLoop=1;jettySize=auto;html=1;entryX=0.5;entryY=1;entryDx=0;entryDy=0;strokeColor=default;align=center;verticalAlign=middle;fontFamily=Helvetica;fontSize=11;fontColor=default;labelBackgroundColor=default;endArrow=none;endFill=0;" edge="1" parent="1" source="EYo5hlnrkkz8JyaRNVUc-22" target="EYo5hlnrkkz8JyaRNVUc-20">
          <mxGeometry relative="1" as="geometry" />
        </mxCell>
        <mxCell id="EYo5hlnrkkz8JyaRNVUc-22" value="NumLabs" style="ellipse;whiteSpace=wrap;html=1;align=center;" vertex="1" parent="1">
          <mxGeometry x="270" y="830" width="100" height="40" as="geometry" />
        </mxCell>
        <mxCell id="EYo5hlnrkkz8JyaRNVUc-25" style="edgeStyle=orthogonalEdgeStyle;shape=connector;rounded=0;orthogonalLoop=1;jettySize=auto;html=1;exitX=0.25;exitY=0;exitDx=0;exitDy=0;entryX=1;entryY=1;entryDx=0;entryDy=0;strokeColor=default;align=center;verticalAlign=middle;fontFamily=Helvetica;fontSize=11;fontColor=default;labelBackgroundColor=default;endArrow=none;endFill=0;" edge="1" parent="1" source="EYo5hlnrkkz8JyaRNVUc-24" target="EYo5hlnrkkz8JyaRNVUc-18">
          <mxGeometry relative="1" as="geometry" />
        </mxCell>
        <mxCell id="EYo5hlnrkkz8JyaRNVUc-24" value="&lt;strong data-end=&quot;691&quot; data-start=&quot;671&quot;&gt;TechParkLocation&lt;/strong&gt;" style="whiteSpace=wrap;html=1;align=center;fontFamily=Helvetica;fontSize=11;fontColor=default;labelBackgroundColor=default;" vertex="1" parent="1">
          <mxGeometry x="410" y="760" width="100" height="40" as="geometry" />
        </mxCell>
        <mxCell id="EYo5hlnrkkz8JyaRNVUc-27" style="edgeStyle=orthogonalEdgeStyle;shape=connector;rounded=0;orthogonalLoop=1;jettySize=auto;html=1;entryX=1;entryY=0.5;entryDx=0;entryDy=0;strokeColor=default;align=center;verticalAlign=middle;fontFamily=Helvetica;fontSize=11;fontColor=default;labelBackgroundColor=default;endArrow=none;endFill=0;" edge="1" parent="1" source="EYo5hlnrkkz8JyaRNVUc-26" target="EYo5hlnrkkz8JyaRNVUc-24">
          <mxGeometry relative="1" as="geometry" />
        </mxCell>
        <mxCell id="EYo5hlnrkkz8JyaRNVUc-26" value="YearFound" style="ellipse;whiteSpace=wrap;html=1;align=center;" vertex="1" parent="1">
          <mxGeometry x="490" y="830" width="100" height="40" as="geometry" />
        </mxCell>
        <mxCell id="EYo5hlnrkkz8JyaRNVUc-29" style="edgeStyle=orthogonalEdgeStyle;shape=connector;rounded=0;orthogonalLoop=1;jettySize=auto;html=1;exitX=0.5;exitY=0;exitDx=0;exitDy=0;entryX=0.25;entryY=1;entryDx=0;entryDy=0;strokeColor=default;align=center;verticalAlign=middle;fontFamily=Helvetica;fontSize=11;fontColor=default;labelBackgroundColor=default;endArrow=none;endFill=0;" edge="1" parent="1" source="EYo5hlnrkkz8JyaRNVUc-28" target="EYo5hlnrkkz8JyaRNVUc-24">
          <mxGeometry relative="1" as="geometry" />
        </mxCell>
        <mxCell id="EYo5hlnrkkz8JyaRNVUc-28" value="MainHallName" style="ellipse;whiteSpace=wrap;html=1;align=center;" vertex="1" parent="1">
          <mxGeometry x="380" y="830" width="100" height="40" as="geometry" />
        </mxCell>
        <mxCell id="EYo5hlnrkkz8JyaRNVUc-30" value="HeldHackathon" style="whiteSpace=wrap;html=1;align=center;" vertex="1" parent="1">
          <mxGeometry x="120" y="400" width="100" height="40" as="geometry" />
        </mxCell>
        <mxCell id="EYo5hlnrkkz8JyaRNVUc-32" value="" style="edgeStyle=orthogonalEdgeStyle;shape=connector;rounded=0;orthogonalLoop=1;jettySize=auto;html=1;strokeColor=default;align=center;verticalAlign=middle;fontFamily=Helvetica;fontSize=11;fontColor=default;labelBackgroundColor=default;endArrow=none;endFill=0;" edge="1" parent="1" source="EYo5hlnrkkz8JyaRNVUc-31" target="EYo5hlnrkkz8JyaRNVUc-30">
          <mxGeometry relative="1" as="geometry" />
        </mxCell>
        <mxCell id="EYo5hlnrkkz8JyaRNVUc-31" value="StartDate&lt;span style=&quot;color: rgba(0, 0, 0, 0); font-family: monospace; font-size: 0px; text-align: start; text-wrap-mode: nowrap;&quot;&gt;%3CmxGraphModel%3E%3Croot%3E%3CmxCell%20id%3D%220%22%2F%3E%3CmxCell%20id%3D%221%22%20parent%3D%220%22%2F%3E%3CmxCell%20id%3D%222%22%20value%3D%22Name%22%20style%3D%22ellipse%3BwhiteSpace%3Dwrap%3Bhtml%3D1%3Balign%3Dcenter%3B%22%20vertex%3D%221%22%20parent%3D%221%22%3E%3CmxGeometry%20x%3D%22360%22%20y%3D%22310%22%20width%3D%22100%22%20height%3D%2240%22%20as%3D%22geometry%22%2F%3E%3C%2FmxCell%3E%3C%2Froot%3E%3C%2FmxGraphModel%3E&lt;/span&gt;" style="ellipse;whiteSpace=wrap;html=1;align=center;" vertex="1" parent="1">
          <mxGeometry x="150" y="310" width="100" height="40" as="geometry" />
        </mxCell>
        <mxCell id="EYo5hlnrkkz8JyaRNVUc-34" style="edgeStyle=orthogonalEdgeStyle;shape=connector;rounded=0;orthogonalLoop=1;jettySize=auto;html=1;entryX=0;entryY=0;entryDx=0;entryDy=0;strokeColor=default;align=center;verticalAlign=middle;fontFamily=Helvetica;fontSize=11;fontColor=default;labelBackgroundColor=default;endArrow=none;endFill=0;" edge="1" parent="1" source="EYo5hlnrkkz8JyaRNVUc-33" target="EYo5hlnrkkz8JyaRNVUc-30">
          <mxGeometry relative="1" as="geometry" />
        </mxCell>
        <mxCell id="EYo5hlnrkkz8JyaRNVUc-33" value="EndDate&lt;span style=&quot;color: rgba(0, 0, 0, 0); font-family: monospace; font-size: 0px; text-align: start; text-wrap-mode: nowrap;&quot;&gt;%3CmxGraphModel%3E%3Croot%3E%3CmxCell%20id%3D%220%22%2F%3E%3CmxCell%20id%3D%221%22%20parent%3D%220%22%2F%3E%3CmxCell%20id%3D%222%22%20value%3D%22Name%22%20style%3D%22ellipse%3BwhiteSpace%3Dwrap%3Bhtml%3D1%3Balign%3Dcenter%3B%22%20vertex%3D%221%22%20parent%3D%221%22%3E%3CmxGeometry%20x%3D%22360%22%20y%3D%22310%22%20width%3D%22100%22%20height%3D%2240%22%20as%3D%22geometry%22%2F%3E%3C%2FmxCell%3E%3C%2Froot%3E%3C%2FmxGraphModel%3E&lt;/span&gt;" style="ellipse;whiteSpace=wrap;html=1;align=center;" vertex="1" parent="1">
          <mxGeometry x="40" y="310" width="100" height="40" as="geometry" />
        </mxCell>
        <mxCell id="EYo5hlnrkkz8JyaRNVUc-108" style="edgeStyle=orthogonalEdgeStyle;shape=connector;rounded=0;orthogonalLoop=1;jettySize=auto;html=1;entryX=0.5;entryY=1;entryDx=0;entryDy=0;strokeColor=default;align=center;verticalAlign=middle;fontFamily=Helvetica;fontSize=11;fontColor=default;labelBackgroundColor=default;endArrow=none;endFill=0;" edge="1" parent="1" source="EYo5hlnrkkz8JyaRNVUc-35" target="EYo5hlnrkkz8JyaRNVUc-30">
          <mxGeometry relative="1" as="geometry">
            <Array as="points">
              <mxPoint x="220" y="460" />
              <mxPoint x="190" y="460" />
              <mxPoint x="190" y="440" />
            </Array>
          </mxGeometry>
        </mxCell>
        <mxCell id="EYo5hlnrkkz8JyaRNVUc-35" value="MainOrg" style="ellipse;whiteSpace=wrap;html=1;align=center;" vertex="1" parent="1">
          <mxGeometry x="170" y="480" width="100" height="40" as="geometry" />
        </mxCell>
        <mxCell id="EYo5hlnrkkz8JyaRNVUc-39" value="" style="edgeStyle=orthogonalEdgeStyle;shape=connector;rounded=0;orthogonalLoop=1;jettySize=auto;html=1;strokeColor=default;align=center;verticalAlign=middle;fontFamily=Helvetica;fontSize=11;fontColor=default;labelBackgroundColor=default;endArrow=none;endFill=0;" edge="1" parent="1" source="EYo5hlnrkkz8JyaRNVUc-38" target="EYo5hlnrkkz8JyaRNVUc-30">
          <mxGeometry relative="1" as="geometry" />
        </mxCell>
        <mxCell id="EYo5hlnrkkz8JyaRNVUc-44" value="M" style="edgeLabel;html=1;align=center;verticalAlign=middle;resizable=0;points=[];fontFamily=Helvetica;fontSize=11;fontColor=default;labelBackgroundColor=default;" vertex="1" connectable="0" parent="EYo5hlnrkkz8JyaRNVUc-39">
          <mxGeometry x="0.627" y="-1" relative="1" as="geometry">
            <mxPoint as="offset" />
          </mxGeometry>
        </mxCell>
        <mxCell id="EYo5hlnrkkz8JyaRNVUc-40" style="edgeStyle=orthogonalEdgeStyle;shape=connector;rounded=0;orthogonalLoop=1;jettySize=auto;html=1;exitX=1;exitY=0.5;exitDx=0;exitDy=0;entryX=0;entryY=0.5;entryDx=0;entryDy=0;strokeColor=default;align=center;verticalAlign=middle;fontFamily=Helvetica;fontSize=11;fontColor=default;labelBackgroundColor=default;endArrow=none;endFill=0;" edge="1" parent="1" source="EYo5hlnrkkz8JyaRNVUc-38" target="EYo5hlnrkkz8JyaRNVUc-1">
          <mxGeometry relative="1" as="geometry" />
        </mxCell>
        <mxCell id="EYo5hlnrkkz8JyaRNVUc-46" value="" style="edgeStyle=orthogonalEdgeStyle;shape=connector;rounded=0;orthogonalLoop=1;jettySize=auto;html=1;strokeColor=default;align=center;verticalAlign=middle;fontFamily=Helvetica;fontSize=11;fontColor=default;labelBackgroundColor=default;endArrow=none;endFill=0;" edge="1" parent="1" source="EYo5hlnrkkz8JyaRNVUc-38" target="EYo5hlnrkkz8JyaRNVUc-1">
          <mxGeometry relative="1" as="geometry" />
        </mxCell>
        <mxCell id="EYo5hlnrkkz8JyaRNVUc-48" value="1" style="edgeLabel;html=1;align=center;verticalAlign=middle;resizable=0;points=[];fontFamily=Helvetica;fontSize=11;fontColor=default;labelBackgroundColor=default;" vertex="1" connectable="0" parent="EYo5hlnrkkz8JyaRNVUc-46">
          <mxGeometry x="0.1524" y="-2" relative="1" as="geometry">
            <mxPoint as="offset" />
          </mxGeometry>
        </mxCell>
        <mxCell id="EYo5hlnrkkz8JyaRNVUc-38" value="" style="shape=rhombus;perimeter=rhombusPerimeter;whiteSpace=wrap;html=1;align=center;fontFamily=Helvetica;fontSize=11;fontColor=default;labelBackgroundColor=default;" vertex="1" parent="1">
          <mxGeometry x="280" y="405" width="40" height="30" as="geometry" />
        </mxCell>
        <mxCell id="EYo5hlnrkkz8JyaRNVUc-50" value="" style="edgeStyle=orthogonalEdgeStyle;shape=connector;rounded=0;orthogonalLoop=1;jettySize=auto;html=1;strokeColor=default;align=center;verticalAlign=middle;fontFamily=Helvetica;fontSize=11;fontColor=default;labelBackgroundColor=default;endArrow=none;endFill=0;" edge="1" parent="1" source="EYo5hlnrkkz8JyaRNVUc-49" target="EYo5hlnrkkz8JyaRNVUc-8">
          <mxGeometry relative="1" as="geometry" />
        </mxCell>
        <mxCell id="EYo5hlnrkkz8JyaRNVUc-53" value="M" style="edgeLabel;html=1;align=center;verticalAlign=middle;resizable=0;points=[];fontFamily=Helvetica;fontSize=11;fontColor=default;labelBackgroundColor=default;" vertex="1" connectable="0" parent="EYo5hlnrkkz8JyaRNVUc-50">
          <mxGeometry x="-0.1852" y="1" relative="1" as="geometry">
            <mxPoint as="offset" />
          </mxGeometry>
        </mxCell>
        <mxCell id="EYo5hlnrkkz8JyaRNVUc-51" value="" style="edgeStyle=orthogonalEdgeStyle;shape=connector;rounded=0;orthogonalLoop=1;jettySize=auto;html=1;strokeColor=default;align=center;verticalAlign=middle;fontFamily=Helvetica;fontSize=11;fontColor=default;labelBackgroundColor=default;endArrow=none;endFill=0;" edge="1" parent="1" source="EYo5hlnrkkz8JyaRNVUc-49" target="EYo5hlnrkkz8JyaRNVUc-1">
          <mxGeometry relative="1" as="geometry" />
        </mxCell>
        <mxCell id="EYo5hlnrkkz8JyaRNVUc-52" value="1" style="edgeLabel;html=1;align=center;verticalAlign=middle;resizable=0;points=[];fontFamily=Helvetica;fontSize=11;fontColor=default;labelBackgroundColor=default;" vertex="1" connectable="0" parent="EYo5hlnrkkz8JyaRNVUc-51">
          <mxGeometry x="-0.2762" relative="1" as="geometry">
            <mxPoint as="offset" />
          </mxGeometry>
        </mxCell>
        <mxCell id="EYo5hlnrkkz8JyaRNVUc-49" value="" style="shape=rhombus;perimeter=rhombusPerimeter;whiteSpace=wrap;html=1;align=center;fontFamily=Helvetica;fontSize=11;fontColor=default;labelBackgroundColor=default;" vertex="1" parent="1">
          <mxGeometry x="390" y="470" width="40" height="30" as="geometry" />
        </mxCell>
        <mxCell id="EYo5hlnrkkz8JyaRNVUc-68" value="" style="edgeStyle=orthogonalEdgeStyle;shape=connector;rounded=0;orthogonalLoop=1;jettySize=auto;html=1;strokeColor=default;align=center;verticalAlign=middle;fontFamily=Helvetica;fontSize=11;fontColor=default;labelBackgroundColor=default;endArrow=none;endFill=0;" edge="1" parent="1" source="EYo5hlnrkkz8JyaRNVUc-54" target="EYo5hlnrkkz8JyaRNVUc-67">
          <mxGeometry relative="1" as="geometry" />
        </mxCell>
        <mxCell id="EYo5hlnrkkz8JyaRNVUc-70" value="1" style="edgeLabel;html=1;align=center;verticalAlign=middle;resizable=0;points=[];fontFamily=Helvetica;fontSize=11;fontColor=default;labelBackgroundColor=default;" vertex="1" connectable="0" parent="EYo5hlnrkkz8JyaRNVUc-68">
          <mxGeometry x="-0.36" relative="1" as="geometry">
            <mxPoint as="offset" />
          </mxGeometry>
        </mxCell>
        <mxCell id="EYo5hlnrkkz8JyaRNVUc-54" value="Engineer" style="whiteSpace=wrap;html=1;align=center;" vertex="1" parent="1">
          <mxGeometry x="-180" y="380" width="100" height="40" as="geometry" />
        </mxCell>
        <mxCell id="EYo5hlnrkkz8JyaRNVUc-55" value="Collaboration" style="whiteSpace=wrap;html=1;align=center;fontFamily=Helvetica;fontSize=11;fontColor=default;labelBackgroundColor=default;" vertex="1" parent="1">
          <mxGeometry x="-200" y="520" width="100" height="40" as="geometry" />
        </mxCell>
        <mxCell id="EYo5hlnrkkz8JyaRNVUc-56" value="Company" style="whiteSpace=wrap;html=1;align=center;fontFamily=Helvetica;fontSize=11;fontColor=default;labelBackgroundColor=default;" vertex="1" parent="1">
          <mxGeometry x="-190" y="670" width="100" height="40" as="geometry" />
        </mxCell>
        <mxCell id="EYo5hlnrkkz8JyaRNVUc-58" value="" style="edgeStyle=orthogonalEdgeStyle;shape=connector;rounded=0;orthogonalLoop=1;jettySize=auto;html=1;strokeColor=default;align=center;verticalAlign=middle;fontFamily=Helvetica;fontSize=11;fontColor=default;labelBackgroundColor=default;endArrow=none;endFill=0;" edge="1" parent="1" source="EYo5hlnrkkz8JyaRNVUc-57" target="EYo5hlnrkkz8JyaRNVUc-54">
          <mxGeometry relative="1" as="geometry" />
        </mxCell>
        <mxCell id="EYo5hlnrkkz8JyaRNVUc-57" value="Username" style="ellipse;whiteSpace=wrap;html=1;align=center;" vertex="1" parent="1">
          <mxGeometry x="-180" y="300" width="100" height="40" as="geometry" />
        </mxCell>
        <mxCell id="EYo5hlnrkkz8JyaRNVUc-61" style="edgeStyle=orthogonalEdgeStyle;shape=connector;rounded=0;orthogonalLoop=1;jettySize=auto;html=1;exitX=1;exitY=1;exitDx=0;exitDy=0;entryX=0.25;entryY=0;entryDx=0;entryDy=0;strokeColor=default;align=center;verticalAlign=middle;fontFamily=Helvetica;fontSize=11;fontColor=default;labelBackgroundColor=default;endArrow=none;endFill=0;" edge="1" parent="1" source="EYo5hlnrkkz8JyaRNVUc-59" target="EYo5hlnrkkz8JyaRNVUc-54">
          <mxGeometry relative="1" as="geometry" />
        </mxCell>
        <mxCell id="EYo5hlnrkkz8JyaRNVUc-59" value="Nationality&lt;span style=&quot;color: rgba(0, 0, 0, 0); font-family: monospace; font-size: 0px; text-align: start; text-wrap-mode: nowrap;&quot;&gt;%3CmxGraphModel%3E%3Croot%3E%3CmxCell%20id%3D%220%22%2F%3E%3CmxCell%20id%3D%221%22%20parent%3D%220%22%2F%3E%3CmxCell%20id%3D%222%22%20value%3D%22Name%22%20style%3D%22ellipse%3BwhiteSpace%3Dwrap%3Bhtml%3D1%3Balign%3Dcenter%3B%22%20vertex%3D%221%22%20parent%3D%221%22%3E%3CmxGeometry%20x%3D%22360%22%20y%3D%22310%22%20width%3D%22100%22%20height%3D%2240%22%20as%3D%22geometry%22%2F%3E%3C%2FmxCell%3E%3C%2Froot%3E%3C%2FmxGraphModel%3E&lt;/span&gt;" style="ellipse;whiteSpace=wrap;html=1;align=center;" vertex="1" parent="1">
          <mxGeometry x="-310" y="360" width="100" height="40" as="geometry" />
        </mxCell>
        <mxCell id="EYo5hlnrkkz8JyaRNVUc-69" value="" style="edgeStyle=orthogonalEdgeStyle;shape=connector;rounded=0;orthogonalLoop=1;jettySize=auto;html=1;strokeColor=default;align=center;verticalAlign=middle;fontFamily=Helvetica;fontSize=11;fontColor=default;labelBackgroundColor=default;endArrow=none;endFill=0;" edge="1" parent="1" source="EYo5hlnrkkz8JyaRNVUc-67" target="EYo5hlnrkkz8JyaRNVUc-55">
          <mxGeometry relative="1" as="geometry" />
        </mxCell>
        <mxCell id="EYo5hlnrkkz8JyaRNVUc-71" value="M" style="edgeLabel;html=1;align=center;verticalAlign=middle;resizable=0;points=[];fontFamily=Helvetica;fontSize=11;fontColor=default;labelBackgroundColor=default;" vertex="1" connectable="0" parent="EYo5hlnrkkz8JyaRNVUc-69">
          <mxGeometry x="-0.2" y="2" relative="1" as="geometry">
            <mxPoint as="offset" />
          </mxGeometry>
        </mxCell>
        <mxCell id="EYo5hlnrkkz8JyaRNVUc-67" value="" style="shape=rhombus;perimeter=rhombusPerimeter;whiteSpace=wrap;html=1;align=center;fontFamily=Helvetica;fontSize=11;fontColor=default;labelBackgroundColor=default;" vertex="1" parent="1">
          <mxGeometry x="-160" y="460" width="50" height="30" as="geometry" />
        </mxCell>
        <mxCell id="EYo5hlnrkkz8JyaRNVUc-74" value="" style="edgeStyle=orthogonalEdgeStyle;shape=connector;rounded=0;orthogonalLoop=1;jettySize=auto;html=1;strokeColor=default;align=center;verticalAlign=middle;fontFamily=Helvetica;fontSize=11;fontColor=default;labelBackgroundColor=default;endArrow=none;endFill=0;" edge="1" parent="1" source="EYo5hlnrkkz8JyaRNVUc-72" target="EYo5hlnrkkz8JyaRNVUc-56">
          <mxGeometry relative="1" as="geometry" />
        </mxCell>
        <mxCell id="EYo5hlnrkkz8JyaRNVUc-76" value="1" style="edgeLabel;html=1;align=center;verticalAlign=middle;resizable=0;points=[];fontFamily=Helvetica;fontSize=11;fontColor=default;labelBackgroundColor=default;" vertex="1" connectable="0" parent="EYo5hlnrkkz8JyaRNVUc-74">
          <mxGeometry x="0.6333" y="-2" relative="1" as="geometry">
            <mxPoint as="offset" />
          </mxGeometry>
        </mxCell>
        <mxCell id="EYo5hlnrkkz8JyaRNVUc-77" style="edgeStyle=orthogonalEdgeStyle;shape=connector;rounded=0;orthogonalLoop=1;jettySize=auto;html=1;exitX=0.5;exitY=0;exitDx=0;exitDy=0;entryX=0.5;entryY=1;entryDx=0;entryDy=0;strokeColor=default;align=center;verticalAlign=middle;fontFamily=Helvetica;fontSize=11;fontColor=default;labelBackgroundColor=default;endArrow=none;endFill=0;" edge="1" parent="1" source="EYo5hlnrkkz8JyaRNVUc-72" target="EYo5hlnrkkz8JyaRNVUc-55">
          <mxGeometry relative="1" as="geometry" />
        </mxCell>
        <mxCell id="EYo5hlnrkkz8JyaRNVUc-78" value="M" style="edgeLabel;html=1;align=center;verticalAlign=middle;resizable=0;points=[];fontFamily=Helvetica;fontSize=11;fontColor=default;labelBackgroundColor=default;" vertex="1" connectable="0" parent="EYo5hlnrkkz8JyaRNVUc-77">
          <mxGeometry x="0.25" y="-2" relative="1" as="geometry">
            <mxPoint as="offset" />
          </mxGeometry>
        </mxCell>
        <mxCell id="EYo5hlnrkkz8JyaRNVUc-72" value="" style="shape=rhombus;perimeter=rhombusPerimeter;whiteSpace=wrap;html=1;align=center;fontFamily=Helvetica;fontSize=11;fontColor=default;labelBackgroundColor=default;" vertex="1" parent="1">
          <mxGeometry x="-170" y="600" width="65" height="30" as="geometry" />
        </mxCell>
        <mxCell id="EYo5hlnrkkz8JyaRNVUc-123" style="edgeStyle=orthogonalEdgeStyle;shape=connector;rounded=0;orthogonalLoop=1;jettySize=auto;html=1;exitX=1;exitY=0;exitDx=0;exitDy=0;entryX=0;entryY=1;entryDx=0;entryDy=0;strokeColor=default;align=center;verticalAlign=middle;fontFamily=Helvetica;fontSize=11;fontColor=default;labelBackgroundColor=default;endArrow=none;endFill=0;" edge="1" parent="1" source="EYo5hlnrkkz8JyaRNVUc-79" target="EYo5hlnrkkz8JyaRNVUc-56">
          <mxGeometry relative="1" as="geometry" />
        </mxCell>
        <mxCell id="EYo5hlnrkkz8JyaRNVUc-79" value="Name" style="ellipse;whiteSpace=wrap;html=1;align=center;" vertex="1" parent="1">
          <mxGeometry x="-305" y="730" width="100" height="40" as="geometry" />
        </mxCell>
        <mxCell id="EYo5hlnrkkz8JyaRNVUc-82" style="edgeStyle=orthogonalEdgeStyle;shape=connector;rounded=0;orthogonalLoop=1;jettySize=auto;html=1;entryX=0;entryY=0.5;entryDx=0;entryDy=0;strokeColor=default;align=center;verticalAlign=middle;fontFamily=Helvetica;fontSize=11;fontColor=default;labelBackgroundColor=default;endArrow=none;endFill=0;" edge="1" parent="1" source="EYo5hlnrkkz8JyaRNVUc-81" target="EYo5hlnrkkz8JyaRNVUc-56">
          <mxGeometry relative="1" as="geometry" />
        </mxCell>
        <mxCell id="EYo5hlnrkkz8JyaRNVUc-81" value="Sponsors" style="ellipse;whiteSpace=wrap;html=1;align=center;fontFamily=Helvetica;fontSize=11;fontColor=default;labelBackgroundColor=default;" vertex="1" parent="1">
          <mxGeometry x="-350" y="675" width="100" height="40" as="geometry" />
        </mxCell>
        <mxCell id="EYo5hlnrkkz8JyaRNVUc-87" style="edgeStyle=orthogonalEdgeStyle;shape=connector;rounded=0;orthogonalLoop=1;jettySize=auto;html=1;entryX=0;entryY=0;entryDx=0;entryDy=0;strokeColor=default;align=center;verticalAlign=middle;fontFamily=Helvetica;fontSize=11;fontColor=default;labelBackgroundColor=default;endArrow=none;endFill=0;" edge="1" parent="1" source="EYo5hlnrkkz8JyaRNVUc-83" target="EYo5hlnrkkz8JyaRNVUc-55">
          <mxGeometry relative="1" as="geometry">
            <Array as="points">
              <mxPoint x="-200" y="490" />
            </Array>
          </mxGeometry>
        </mxCell>
        <mxCell id="EYo5hlnrkkz8JyaRNVUc-83" value="Type" style="ellipse;whiteSpace=wrap;html=1;align=center;fontFamily=Helvetica;fontSize=11;fontColor=default;labelBackgroundColor=default;" vertex="1" parent="1">
          <mxGeometry x="-380" y="450" width="100" height="40" as="geometry" />
        </mxCell>
        <mxCell id="EYo5hlnrkkz8JyaRNVUc-86" style="edgeStyle=orthogonalEdgeStyle;shape=connector;rounded=0;orthogonalLoop=1;jettySize=auto;html=1;entryX=0;entryY=0.5;entryDx=0;entryDy=0;strokeColor=default;align=center;verticalAlign=middle;fontFamily=Helvetica;fontSize=11;fontColor=default;labelBackgroundColor=default;endArrow=none;endFill=0;" edge="1" parent="1" source="EYo5hlnrkkz8JyaRNVUc-84" target="EYo5hlnrkkz8JyaRNVUc-55">
          <mxGeometry relative="1" as="geometry" />
        </mxCell>
        <mxCell id="EYo5hlnrkkz8JyaRNVUc-84" value="StartDate" style="ellipse;whiteSpace=wrap;html=1;align=center;fontFamily=Helvetica;fontSize=11;fontColor=default;labelBackgroundColor=default;" vertex="1" parent="1">
          <mxGeometry x="-390" y="520" width="100" height="40" as="geometry" />
        </mxCell>
        <mxCell id="EYo5hlnrkkz8JyaRNVUc-88" style="edgeStyle=orthogonalEdgeStyle;shape=connector;rounded=0;orthogonalLoop=1;jettySize=auto;html=1;strokeColor=default;align=center;verticalAlign=middle;fontFamily=Helvetica;fontSize=11;fontColor=default;labelBackgroundColor=default;endArrow=none;endFill=0;entryX=0;entryY=1;entryDx=0;entryDy=0;" edge="1" parent="1" source="EYo5hlnrkkz8JyaRNVUc-85" target="EYo5hlnrkkz8JyaRNVUc-55">
          <mxGeometry relative="1" as="geometry">
            <mxPoint x="-210" y="560" as="targetPoint" />
          </mxGeometry>
        </mxCell>
        <mxCell id="EYo5hlnrkkz8JyaRNVUc-85" value="EndDate" style="ellipse;whiteSpace=wrap;html=1;align=center;fontFamily=Helvetica;fontSize=11;fontColor=default;labelBackgroundColor=default;" vertex="1" parent="1">
          <mxGeometry x="-380" y="590" width="100" height="40" as="geometry" />
        </mxCell>
        <mxCell id="EYo5hlnrkkz8JyaRNVUc-89" value="Robot" style="whiteSpace=wrap;html=1;align=center;fontFamily=Helvetica;fontSize=11;fontColor=default;labelBackgroundColor=default;" vertex="1" parent="1">
          <mxGeometry x="-40" y="800" width="100" height="40" as="geometry" />
        </mxCell>
        <mxCell id="EYo5hlnrkkz8JyaRNVUc-90" value="RobotVersion" style="whiteSpace=wrap;html=1;align=center;fontFamily=Helvetica;fontSize=11;fontColor=default;labelBackgroundColor=default;" vertex="1" parent="1">
          <mxGeometry x="-70" y="970" width="100" height="40" as="geometry" />
        </mxCell>
        <mxCell id="EYo5hlnrkkz8JyaRNVUc-146" style="edgeStyle=orthogonalEdgeStyle;shape=connector;rounded=0;orthogonalLoop=1;jettySize=auto;html=1;exitX=0.25;exitY=0;exitDx=0;exitDy=0;strokeColor=default;align=center;verticalAlign=middle;fontFamily=Helvetica;fontSize=11;fontColor=default;labelBackgroundColor=default;endArrow=none;endFill=0;entryX=0.75;entryY=0;entryDx=0;entryDy=0;" edge="1" parent="1" source="EYo5hlnrkkz8JyaRNVUc-91" target="EYo5hlnrkkz8JyaRNVUc-91">
          <mxGeometry relative="1" as="geometry">
            <mxPoint x="-230" y="850" as="targetPoint" />
            <Array as="points">
              <mxPoint x="-315" y="850" />
              <mxPoint x="-265" y="850" />
            </Array>
          </mxGeometry>
        </mxCell>
        <mxCell id="EYo5hlnrkkz8JyaRNVUc-91" value="Component" style="whiteSpace=wrap;html=1;align=center;fontFamily=Helvetica;fontSize=11;fontColor=default;labelBackgroundColor=default;" vertex="1" parent="1">
          <mxGeometry x="-340" y="910" width="100" height="40" as="geometry" />
        </mxCell>
        <mxCell id="EYo5hlnrkkz8JyaRNVUc-93" style="edgeStyle=orthogonalEdgeStyle;shape=connector;rounded=0;orthogonalLoop=1;jettySize=auto;html=1;entryX=0;entryY=0.75;entryDx=0;entryDy=0;strokeColor=default;align=center;verticalAlign=middle;fontFamily=Helvetica;fontSize=11;fontColor=default;labelBackgroundColor=default;endArrow=none;endFill=0;" edge="1" parent="1" source="EYo5hlnrkkz8JyaRNVUc-92" target="EYo5hlnrkkz8JyaRNVUc-89">
          <mxGeometry relative="1" as="geometry" />
        </mxCell>
        <mxCell id="EYo5hlnrkkz8JyaRNVUc-92" value="SerialNo" style="ellipse;whiteSpace=wrap;html=1;align=center;" vertex="1" parent="1">
          <mxGeometry x="-170" y="810" width="100" height="40" as="geometry" />
        </mxCell>
        <mxCell id="EYo5hlnrkkz8JyaRNVUc-95" style="edgeStyle=orthogonalEdgeStyle;shape=connector;rounded=0;orthogonalLoop=1;jettySize=auto;html=1;entryX=1;entryY=0.25;entryDx=0;entryDy=0;strokeColor=default;align=center;verticalAlign=middle;fontFamily=Helvetica;fontSize=11;fontColor=default;labelBackgroundColor=default;endArrow=none;endFill=0;" edge="1" parent="1" source="EYo5hlnrkkz8JyaRNVUc-94" target="EYo5hlnrkkz8JyaRNVUc-89">
          <mxGeometry relative="1" as="geometry" />
        </mxCell>
        <mxCell id="EYo5hlnrkkz8JyaRNVUc-94" value="Name" style="ellipse;whiteSpace=wrap;html=1;align=center;" vertex="1" parent="1">
          <mxGeometry x="100" y="760" width="100" height="40" as="geometry" />
        </mxCell>
        <mxCell id="EYo5hlnrkkz8JyaRNVUc-97" style="edgeStyle=orthogonalEdgeStyle;shape=connector;rounded=0;orthogonalLoop=1;jettySize=auto;html=1;entryX=1;entryY=1;entryDx=0;entryDy=0;strokeColor=default;align=center;verticalAlign=middle;fontFamily=Helvetica;fontSize=11;fontColor=default;labelBackgroundColor=default;endArrow=none;endFill=0;" edge="1" parent="1" source="EYo5hlnrkkz8JyaRNVUc-96" target="EYo5hlnrkkz8JyaRNVUc-89">
          <mxGeometry relative="1" as="geometry" />
        </mxCell>
        <mxCell id="EYo5hlnrkkz8JyaRNVUc-96" value="Type" style="ellipse;whiteSpace=wrap;html=1;align=center;" vertex="1" parent="1">
          <mxGeometry x="100" y="830" width="100" height="40" as="geometry" />
        </mxCell>
        <mxCell id="EYo5hlnrkkz8JyaRNVUc-99" style="edgeStyle=orthogonalEdgeStyle;shape=connector;rounded=0;orthogonalLoop=1;jettySize=auto;html=1;entryX=0.5;entryY=1;entryDx=0;entryDy=0;strokeColor=default;align=center;verticalAlign=middle;fontFamily=Helvetica;fontSize=11;fontColor=default;labelBackgroundColor=default;endArrow=none;endFill=0;" edge="1" parent="1" source="EYo5hlnrkkz8JyaRNVUc-98" target="EYo5hlnrkkz8JyaRNVUc-89">
          <mxGeometry relative="1" as="geometry" />
        </mxCell>
        <mxCell id="EYo5hlnrkkz8JyaRNVUc-101" value="M" style="edgeLabel;html=1;align=center;verticalAlign=middle;resizable=0;points=[];fontFamily=Helvetica;fontSize=11;fontColor=default;labelBackgroundColor=default;" vertex="1" connectable="0" parent="EYo5hlnrkkz8JyaRNVUc-99">
          <mxGeometry x="0.25" y="-2" relative="1" as="geometry">
            <mxPoint as="offset" />
          </mxGeometry>
        </mxCell>
        <mxCell id="EYo5hlnrkkz8JyaRNVUc-100" style="edgeStyle=orthogonalEdgeStyle;shape=connector;rounded=0;orthogonalLoop=1;jettySize=auto;html=1;entryX=0.5;entryY=0;entryDx=0;entryDy=0;strokeColor=default;align=center;verticalAlign=middle;fontFamily=Helvetica;fontSize=11;fontColor=default;labelBackgroundColor=default;endArrow=none;endFill=0;" edge="1" parent="1" source="EYo5hlnrkkz8JyaRNVUc-98" target="EYo5hlnrkkz8JyaRNVUc-90">
          <mxGeometry relative="1" as="geometry" />
        </mxCell>
        <mxCell id="EYo5hlnrkkz8JyaRNVUc-102" value="1" style="edgeLabel;html=1;align=center;verticalAlign=middle;resizable=0;points=[];fontFamily=Helvetica;fontSize=11;fontColor=default;labelBackgroundColor=default;" vertex="1" connectable="0" parent="EYo5hlnrkkz8JyaRNVUc-100">
          <mxGeometry y="1" relative="1" as="geometry">
            <mxPoint as="offset" />
          </mxGeometry>
        </mxCell>
        <mxCell id="EYo5hlnrkkz8JyaRNVUc-98" value="" style="shape=rhombus;perimeter=rhombusPerimeter;whiteSpace=wrap;html=1;align=center;fontFamily=Helvetica;fontSize=11;fontColor=default;labelBackgroundColor=default;" vertex="1" parent="1">
          <mxGeometry x="-50" y="880" width="50" height="40" as="geometry" />
        </mxCell>
        <mxCell id="EYo5hlnrkkz8JyaRNVUc-104" style="edgeStyle=orthogonalEdgeStyle;shape=connector;rounded=0;orthogonalLoop=1;jettySize=auto;html=1;entryX=1;entryY=0.5;entryDx=0;entryDy=0;strokeColor=default;align=center;verticalAlign=middle;fontFamily=Helvetica;fontSize=11;fontColor=default;labelBackgroundColor=default;endArrow=none;endFill=0;" edge="1" parent="1" source="EYo5hlnrkkz8JyaRNVUc-103" target="EYo5hlnrkkz8JyaRNVUc-90">
          <mxGeometry relative="1" as="geometry" />
        </mxCell>
        <mxCell id="EYo5hlnrkkz8JyaRNVUc-103" value="VersionNo" style="ellipse;whiteSpace=wrap;html=1;align=center;" vertex="1" parent="1">
          <mxGeometry x="80" y="1000" width="100" height="40" as="geometry" />
        </mxCell>
        <mxCell id="EYo5hlnrkkz8JyaRNVUc-106" style="edgeStyle=orthogonalEdgeStyle;shape=connector;rounded=0;orthogonalLoop=1;jettySize=auto;html=1;entryX=0.75;entryY=1;entryDx=0;entryDy=0;strokeColor=default;align=center;verticalAlign=middle;fontFamily=Helvetica;fontSize=11;fontColor=default;labelBackgroundColor=default;endArrow=none;endFill=0;" edge="1" parent="1" source="EYo5hlnrkkz8JyaRNVUc-105" target="EYo5hlnrkkz8JyaRNVUc-90">
          <mxGeometry relative="1" as="geometry" />
        </mxCell>
        <mxCell id="EYo5hlnrkkz8JyaRNVUc-105" value="SubmissionDate" style="ellipse;whiteSpace=wrap;html=1;align=center;" vertex="1" parent="1">
          <mxGeometry x="-50" y="1050" width="100" height="40" as="geometry" />
        </mxCell>
        <mxCell id="EYo5hlnrkkz8JyaRNVUc-110" style="edgeStyle=orthogonalEdgeStyle;shape=connector;rounded=0;orthogonalLoop=1;jettySize=auto;html=1;entryX=1;entryY=0.75;entryDx=0;entryDy=0;strokeColor=default;align=center;verticalAlign=middle;fontFamily=Helvetica;fontSize=11;fontColor=default;labelBackgroundColor=default;endArrow=none;endFill=0;" edge="1" parent="1" source="EYo5hlnrkkz8JyaRNVUc-109" target="EYo5hlnrkkz8JyaRNVUc-91">
          <mxGeometry relative="1" as="geometry" />
        </mxCell>
        <mxCell id="EYo5hlnrkkz8JyaRNVUc-113" value="M" style="edgeLabel;html=1;align=center;verticalAlign=middle;resizable=0;points=[];fontFamily=Helvetica;fontSize=11;fontColor=default;labelBackgroundColor=default;" vertex="1" connectable="0" parent="EYo5hlnrkkz8JyaRNVUc-110">
          <mxGeometry x="0.16" y="1" relative="1" as="geometry">
            <mxPoint as="offset" />
          </mxGeometry>
        </mxCell>
        <mxCell id="EYo5hlnrkkz8JyaRNVUc-111" style="edgeStyle=orthogonalEdgeStyle;shape=connector;rounded=0;orthogonalLoop=1;jettySize=auto;html=1;entryX=0;entryY=0.25;entryDx=0;entryDy=0;strokeColor=default;align=center;verticalAlign=middle;fontFamily=Helvetica;fontSize=11;fontColor=default;labelBackgroundColor=default;endArrow=none;endFill=0;" edge="1" parent="1" source="EYo5hlnrkkz8JyaRNVUc-109" target="EYo5hlnrkkz8JyaRNVUc-90">
          <mxGeometry relative="1" as="geometry" />
        </mxCell>
        <mxCell id="EYo5hlnrkkz8JyaRNVUc-114" value="N" style="edgeLabel;html=1;align=center;verticalAlign=middle;resizable=0;points=[];fontFamily=Helvetica;fontSize=11;fontColor=default;labelBackgroundColor=default;" vertex="1" connectable="0" parent="EYo5hlnrkkz8JyaRNVUc-111">
          <mxGeometry x="0.1667" y="-2" relative="1" as="geometry">
            <mxPoint as="offset" />
          </mxGeometry>
        </mxCell>
        <mxCell id="EYo5hlnrkkz8JyaRNVUc-109" value="" style="shape=rhombus;perimeter=rhombusPerimeter;whiteSpace=wrap;html=1;align=center;fontFamily=Helvetica;fontSize=11;fontColor=default;labelBackgroundColor=default;" vertex="1" parent="1">
          <mxGeometry x="-180" y="930" width="55" height="40" as="geometry" />
        </mxCell>
        <mxCell id="EYo5hlnrkkz8JyaRNVUc-116" style="edgeStyle=orthogonalEdgeStyle;shape=connector;rounded=0;orthogonalLoop=1;jettySize=auto;html=1;entryX=0;entryY=0.5;entryDx=0;entryDy=0;strokeColor=default;align=center;verticalAlign=middle;fontFamily=Helvetica;fontSize=11;fontColor=default;labelBackgroundColor=default;endArrow=none;endFill=0;" edge="1" parent="1" source="EYo5hlnrkkz8JyaRNVUc-115" target="EYo5hlnrkkz8JyaRNVUc-91">
          <mxGeometry relative="1" as="geometry" />
        </mxCell>
        <mxCell id="EYo5hlnrkkz8JyaRNVUc-115" value="Name" style="ellipse;whiteSpace=wrap;html=1;align=center;" vertex="1" parent="1">
          <mxGeometry x="-470" y="920" width="100" height="40" as="geometry" />
        </mxCell>
        <mxCell id="EYo5hlnrkkz8JyaRNVUc-117" value="Manufacturer" style="ellipse;whiteSpace=wrap;html=1;align=center;" vertex="1" parent="1">
          <mxGeometry x="-430" y="1010" width="100" height="40" as="geometry" />
        </mxCell>
        <mxCell id="EYo5hlnrkkz8JyaRNVUc-120" style="edgeStyle=orthogonalEdgeStyle;shape=connector;rounded=0;orthogonalLoop=1;jettySize=auto;html=1;exitX=0;exitY=0;exitDx=0;exitDy=0;entryX=0.75;entryY=1;entryDx=0;entryDy=0;strokeColor=default;align=center;verticalAlign=middle;fontFamily=Helvetica;fontSize=11;fontColor=default;labelBackgroundColor=default;endArrow=none;endFill=0;" edge="1" parent="1" source="EYo5hlnrkkz8JyaRNVUc-118" target="EYo5hlnrkkz8JyaRNVUc-91">
          <mxGeometry relative="1" as="geometry" />
        </mxCell>
        <mxCell id="EYo5hlnrkkz8JyaRNVUc-118" value="Type" style="ellipse;whiteSpace=wrap;html=1;align=center;" vertex="1" parent="1">
          <mxGeometry x="-270" y="1020" width="100" height="40" as="geometry" />
        </mxCell>
        <mxCell id="EYo5hlnrkkz8JyaRNVUc-119" style="edgeStyle=orthogonalEdgeStyle;shape=connector;rounded=0;orthogonalLoop=1;jettySize=auto;html=1;exitX=1;exitY=0;exitDx=0;exitDy=0;entryX=0.14;entryY=1.075;entryDx=0;entryDy=0;entryPerimeter=0;strokeColor=default;align=center;verticalAlign=middle;fontFamily=Helvetica;fontSize=11;fontColor=default;labelBackgroundColor=default;endArrow=none;endFill=0;" edge="1" parent="1" source="EYo5hlnrkkz8JyaRNVUc-117" target="EYo5hlnrkkz8JyaRNVUc-91">
          <mxGeometry relative="1" as="geometry" />
        </mxCell>
        <mxCell id="EYo5hlnrkkz8JyaRNVUc-121" value="RobotPresentation " style="whiteSpace=wrap;html=1;align=center;" vertex="1" parent="1">
          <mxGeometry y="530" width="100" height="40" as="geometry" />
        </mxCell>
        <mxCell id="EYo5hlnrkkz8JyaRNVUc-125" style="edgeStyle=orthogonalEdgeStyle;shape=connector;rounded=0;orthogonalLoop=1;jettySize=auto;html=1;exitX=0;exitY=0;exitDx=0;exitDy=0;entryX=1;entryY=0.75;entryDx=0;entryDy=0;strokeColor=default;align=center;verticalAlign=middle;fontFamily=Helvetica;fontSize=11;fontColor=default;labelBackgroundColor=default;endArrow=none;endFill=0;" edge="1" parent="1" source="EYo5hlnrkkz8JyaRNVUc-124" target="EYo5hlnrkkz8JyaRNVUc-121">
          <mxGeometry relative="1" as="geometry" />
        </mxCell>
        <mxCell id="EYo5hlnrkkz8JyaRNVUc-124" value="Points" style="ellipse;whiteSpace=wrap;html=1;align=center;" vertex="1" parent="1">
          <mxGeometry x="100" y="600" width="100" height="40" as="geometry" />
        </mxCell>
        <mxCell id="EYo5hlnrkkz8JyaRNVUc-135" style="edgeStyle=orthogonalEdgeStyle;shape=connector;rounded=0;orthogonalLoop=1;jettySize=auto;html=1;exitX=0.5;exitY=0;exitDx=0;exitDy=0;entryX=1;entryY=0.5;entryDx=0;entryDy=0;strokeColor=default;align=center;verticalAlign=middle;fontFamily=Helvetica;fontSize=11;fontColor=default;labelBackgroundColor=default;endArrow=none;endFill=0;" edge="1" parent="1" source="EYo5hlnrkkz8JyaRNVUc-126" target="EYo5hlnrkkz8JyaRNVUc-54">
          <mxGeometry relative="1" as="geometry" />
        </mxCell>
        <mxCell id="EYo5hlnrkkz8JyaRNVUc-143" value="1" style="edgeLabel;html=1;align=center;verticalAlign=middle;resizable=0;points=[];fontFamily=Helvetica;fontSize=11;fontColor=default;labelBackgroundColor=default;" vertex="1" connectable="0" parent="EYo5hlnrkkz8JyaRNVUc-135">
          <mxGeometry x="-0.3217" y="4" relative="1" as="geometry">
            <mxPoint as="offset" />
          </mxGeometry>
        </mxCell>
        <mxCell id="EYo5hlnrkkz8JyaRNVUc-126" value="" style="shape=rhombus;perimeter=rhombusPerimeter;whiteSpace=wrap;html=1;align=center;fontFamily=Helvetica;fontSize=11;fontColor=default;labelBackgroundColor=default;" vertex="1" parent="1">
          <mxGeometry x="-30" y="460" width="50" height="30" as="geometry" />
        </mxCell>
        <mxCell id="EYo5hlnrkkz8JyaRNVUc-136" style="edgeStyle=orthogonalEdgeStyle;shape=connector;rounded=0;orthogonalLoop=1;jettySize=auto;html=1;exitX=0.5;exitY=0;exitDx=0;exitDy=0;entryX=0;entryY=0.5;entryDx=0;entryDy=0;strokeColor=default;align=center;verticalAlign=middle;fontFamily=Helvetica;fontSize=11;fontColor=default;labelBackgroundColor=default;endArrow=none;endFill=0;" edge="1" parent="1" source="EYo5hlnrkkz8JyaRNVUc-127" target="EYo5hlnrkkz8JyaRNVUc-30">
          <mxGeometry relative="1" as="geometry" />
        </mxCell>
        <mxCell id="EYo5hlnrkkz8JyaRNVUc-142" value="1" style="edgeLabel;html=1;align=center;verticalAlign=middle;resizable=0;points=[];fontFamily=Helvetica;fontSize=11;fontColor=default;labelBackgroundColor=default;" vertex="1" connectable="0" parent="EYo5hlnrkkz8JyaRNVUc-136">
          <mxGeometry x="-0.0667" y="1" relative="1" as="geometry">
            <mxPoint as="offset" />
          </mxGeometry>
        </mxCell>
        <mxCell id="EYo5hlnrkkz8JyaRNVUc-137" style="edgeStyle=orthogonalEdgeStyle;shape=connector;rounded=0;orthogonalLoop=1;jettySize=auto;html=1;exitX=0.5;exitY=1;exitDx=0;exitDy=0;entryX=0.75;entryY=0;entryDx=0;entryDy=0;strokeColor=default;align=center;verticalAlign=middle;fontFamily=Helvetica;fontSize=11;fontColor=default;labelBackgroundColor=default;endArrow=none;endFill=0;" edge="1" parent="1" source="EYo5hlnrkkz8JyaRNVUc-127" target="EYo5hlnrkkz8JyaRNVUc-121">
          <mxGeometry relative="1" as="geometry" />
        </mxCell>
        <mxCell id="EYo5hlnrkkz8JyaRNVUc-141" value="N" style="edgeLabel;html=1;align=center;verticalAlign=middle;resizable=0;points=[];fontFamily=Helvetica;fontSize=11;fontColor=default;labelBackgroundColor=default;" vertex="1" connectable="0" parent="EYo5hlnrkkz8JyaRNVUc-137">
          <mxGeometry x="-0.1714" relative="1" as="geometry">
            <mxPoint as="offset" />
          </mxGeometry>
        </mxCell>
        <mxCell id="EYo5hlnrkkz8JyaRNVUc-127" value="" style="shape=rhombus;perimeter=rhombusPerimeter;whiteSpace=wrap;html=1;align=center;fontFamily=Helvetica;fontSize=11;fontColor=default;labelBackgroundColor=default;" vertex="1" parent="1">
          <mxGeometry x="80" y="460" width="40" height="30" as="geometry" />
        </mxCell>
        <mxCell id="EYo5hlnrkkz8JyaRNVUc-133" style="edgeStyle=orthogonalEdgeStyle;shape=connector;rounded=0;orthogonalLoop=1;jettySize=auto;html=1;exitX=0.5;exitY=1;exitDx=0;exitDy=0;entryX=1;entryY=0.5;entryDx=0;entryDy=0;strokeColor=default;align=center;verticalAlign=middle;fontFamily=Helvetica;fontSize=11;fontColor=default;labelBackgroundColor=default;endArrow=none;endFill=0;" edge="1" parent="1" source="EYo5hlnrkkz8JyaRNVUc-128" target="EYo5hlnrkkz8JyaRNVUc-56">
          <mxGeometry relative="1" as="geometry" />
        </mxCell>
        <mxCell id="EYo5hlnrkkz8JyaRNVUc-145" value="1" style="edgeLabel;html=1;align=center;verticalAlign=middle;resizable=0;points=[];fontFamily=Helvetica;fontSize=11;fontColor=default;labelBackgroundColor=default;" vertex="1" connectable="0" parent="EYo5hlnrkkz8JyaRNVUc-133">
          <mxGeometry x="-0.3538" y="2" relative="1" as="geometry">
            <mxPoint as="offset" />
          </mxGeometry>
        </mxCell>
        <mxCell id="EYo5hlnrkkz8JyaRNVUc-128" value="" style="shape=rhombus;perimeter=rhombusPerimeter;whiteSpace=wrap;html=1;align=center;fontFamily=Helvetica;fontSize=11;fontColor=default;labelBackgroundColor=default;" vertex="1" parent="1">
          <mxGeometry x="-60" y="620" width="50" height="40" as="geometry" />
        </mxCell>
        <mxCell id="EYo5hlnrkkz8JyaRNVUc-130" style="edgeStyle=orthogonalEdgeStyle;shape=connector;rounded=0;orthogonalLoop=1;jettySize=auto;html=1;entryX=0.75;entryY=1;entryDx=0;entryDy=0;strokeColor=default;align=center;verticalAlign=middle;fontFamily=Helvetica;fontSize=11;fontColor=default;labelBackgroundColor=default;endArrow=none;endFill=0;" edge="1" parent="1" source="EYo5hlnrkkz8JyaRNVUc-129" target="EYo5hlnrkkz8JyaRNVUc-121">
          <mxGeometry relative="1" as="geometry" />
        </mxCell>
        <mxCell id="EYo5hlnrkkz8JyaRNVUc-139" value="N" style="edgeLabel;html=1;align=center;verticalAlign=middle;resizable=0;points=[];fontFamily=Helvetica;fontSize=11;fontColor=default;labelBackgroundColor=default;" vertex="1" connectable="0" parent="EYo5hlnrkkz8JyaRNVUc-130">
          <mxGeometry x="0.0222" y="2" relative="1" as="geometry">
            <mxPoint as="offset" />
          </mxGeometry>
        </mxCell>
        <mxCell id="EYo5hlnrkkz8JyaRNVUc-129" value="" style="shape=rhombus;perimeter=rhombusPerimeter;whiteSpace=wrap;html=1;align=center;fontFamily=Helvetica;fontSize=11;fontColor=default;labelBackgroundColor=default;" vertex="1" parent="1">
          <mxGeometry x="5" y="680" width="45" height="30" as="geometry" />
        </mxCell>
        <mxCell id="EYo5hlnrkkz8JyaRNVUc-131" style="edgeStyle=orthogonalEdgeStyle;shape=connector;rounded=0;orthogonalLoop=1;jettySize=auto;html=1;exitX=0.5;exitY=1;exitDx=0;exitDy=0;entryX=0.84;entryY=0.075;entryDx=0;entryDy=0;entryPerimeter=0;strokeColor=default;align=center;verticalAlign=middle;fontFamily=Helvetica;fontSize=11;fontColor=default;labelBackgroundColor=default;endArrow=none;endFill=0;" edge="1" parent="1" source="EYo5hlnrkkz8JyaRNVUc-129" target="EYo5hlnrkkz8JyaRNVUc-89">
          <mxGeometry relative="1" as="geometry" />
        </mxCell>
        <mxCell id="EYo5hlnrkkz8JyaRNVUc-144" value="1" style="edgeLabel;html=1;align=center;verticalAlign=middle;resizable=0;points=[];fontFamily=Helvetica;fontSize=11;fontColor=default;labelBackgroundColor=default;" vertex="1" connectable="0" parent="EYo5hlnrkkz8JyaRNVUc-131">
          <mxGeometry x="-0.1011" y="4" relative="1" as="geometry">
            <mxPoint as="offset" />
          </mxGeometry>
        </mxCell>
        <mxCell id="EYo5hlnrkkz8JyaRNVUc-132" style="edgeStyle=orthogonalEdgeStyle;shape=connector;rounded=0;orthogonalLoop=1;jettySize=auto;html=1;exitX=0.5;exitY=0;exitDx=0;exitDy=0;entryX=0.16;entryY=1.025;entryDx=0;entryDy=0;entryPerimeter=0;strokeColor=default;align=center;verticalAlign=middle;fontFamily=Helvetica;fontSize=11;fontColor=default;labelBackgroundColor=default;endArrow=none;endFill=0;" edge="1" parent="1" source="EYo5hlnrkkz8JyaRNVUc-128" target="EYo5hlnrkkz8JyaRNVUc-121">
          <mxGeometry relative="1" as="geometry" />
        </mxCell>
        <mxCell id="EYo5hlnrkkz8JyaRNVUc-138" value="N" style="edgeLabel;html=1;align=center;verticalAlign=middle;resizable=0;points=[];fontFamily=Helvetica;fontSize=11;fontColor=default;labelBackgroundColor=default;" vertex="1" connectable="0" parent="EYo5hlnrkkz8JyaRNVUc-132">
          <mxGeometry y="-4" relative="1" as="geometry">
            <mxPoint as="offset" />
          </mxGeometry>
        </mxCell>
        <mxCell id="EYo5hlnrkkz8JyaRNVUc-134" style="edgeStyle=orthogonalEdgeStyle;shape=connector;rounded=0;orthogonalLoop=1;jettySize=auto;html=1;exitX=0.5;exitY=1;exitDx=0;exitDy=0;entryX=0.19;entryY=0.1;entryDx=0;entryDy=0;entryPerimeter=0;strokeColor=default;align=center;verticalAlign=middle;fontFamily=Helvetica;fontSize=11;fontColor=default;labelBackgroundColor=default;endArrow=none;endFill=0;" edge="1" parent="1" source="EYo5hlnrkkz8JyaRNVUc-126" target="EYo5hlnrkkz8JyaRNVUc-121">
          <mxGeometry relative="1" as="geometry" />
        </mxCell>
        <mxCell id="EYo5hlnrkkz8JyaRNVUc-140" value="N" style="edgeLabel;html=1;align=center;verticalAlign=middle;resizable=0;points=[];fontFamily=Helvetica;fontSize=11;fontColor=default;labelBackgroundColor=default;" vertex="1" connectable="0" parent="EYo5hlnrkkz8JyaRNVUc-134">
          <mxGeometry x="-0.3077" y="1" relative="1" as="geometry">
            <mxPoint as="offset" />
          </mxGeometry>
        </mxCell>
      </root>
    </mxGraphModel>
  </diagram>
</mxfile>
